<?xml version="1.0" encoding="iso-8859-1"?>
<!-- Uploaded to: SVG Repo, www.svgrepo.com, Generator: SVG Repo Mixer Tools -->
<svg height="800px" width="800px" version="1.1" id="Layer_1" xmlns="http://www.w3.org/2000/svg" xmlns:xlink="http://www.w3.org/1999/xlink" 
	 viewBox="0 0 512.004 512.004" xml:space="preserve">
<path style="fill:#FEE187;" d="M445.609,219.481c6.828-9.925,10.834-21.941,10.834-34.898c0-34.051-27.604-61.653-61.655-61.653
	H118.922c-34.051-0.001-61.653,27.602-61.653,61.653c0,12.808,3.907,24.702,10.592,34.561c-30.609,6.636-53.544,33.862-53.544,66.46
	c0,21.79,10.257,41.169,26.192,53.618l-0.232-0.709l0.009-10.661c0-23.828,19.315-43.142,43.142-43.142s43.142,19.315,43.142,43.142
	c0-23.828,19.315-43.142,43.142-43.142c23.827,0,43.142,19.315,43.142,43.142c0-23.828,19.315-43.142,43.142-43.142
	s43.142,19.315,43.142,43.142c0-23.828,19.315-43.142,43.142-43.142s43.142,19.315,43.142,43.142
	c0-23.828,19.315-43.142,43.142-43.142s43.142,19.315,43.142,43.142l0.009,10.661l-0.232,0.709
	c15.935-12.449,26.192-31.829,26.192-53.618C497.684,253.53,475.479,226.66,445.609,219.481z"/>
<path style="fill:#FFC61B;" d="M465.815,211.589c3.26-8.56,4.945-17.68,4.945-27.007c0-41.891-34.081-75.972-75.972-75.972H255.999
	c-19.736,0-35.793-16.057-35.793-35.793s16.057-35.793,35.793-35.793s35.793,16.057,35.793,35.793
	c0,7.906,6.411,14.317,14.317,14.317c7.906,0,14.317-6.411,14.317-14.317c0-35.526-28.902-64.428-64.428-64.428
	s-64.428,28.902-64.428,64.428c0,13.236,4.016,25.549,10.887,35.793h-83.534c-41.891,0-75.972,34.081-75.972,75.972
	c0,9.091,1.601,17.993,4.7,26.365C19.235,224.243,0,253.285,0,285.603c0,23.901,10.142,46.173,27.986,61.829L71.17,493.361
	c1.8,6.081,7.386,10.254,13.729,10.254h342.204c6.451,0,12.105-4.315,13.81-10.536l24.096-88.017
	c2.087-7.627-2.402-15.501-10.029-17.59c-7.63-2.085-15.503,2.402-17.59,10.029l-21.21,77.48H95.594L54.598,336.445l0.007-8.593
	c0-15.895,12.93-28.825,28.825-28.825s28.826,12.93,28.826,28.825c0,7.906,6.411,14.317,14.317,14.317s14.317-6.411,14.317-14.317
	c0-15.895,12.93-28.825,28.825-28.825s28.826,12.93,28.826,28.825v67.701c0,7.906,6.411,14.317,14.317,14.317
	c7.906,0,14.317-6.411,14.317-14.317v-67.701c0-15.895,12.93-28.825,28.825-28.825s28.825,12.93,28.825,28.825
	c0,7.906,6.411,14.317,14.317,14.317c7.906,0,14.317-6.411,14.317-14.317c0-15.895,12.931-28.825,28.826-28.825
	c0.994,0,1.976,0.05,2.944,0.149c14.208,1.447,25.365,13.265,25.834,27.737c-0.02,0.312-0.047,0.623-0.047,0.939v67.701
	c0,7.906,6.411,14.317,14.317,14.317c7.906,0,14.317-6.411,14.317-14.317v-66.09c0.06-0.53,0.096-1.067,0.096-1.611
	c0-14.901,11.365-27.197,25.881-28.676c0.968-0.099,1.95-0.149,2.944-0.149c15.895,0,28.825,12.93,28.825,28.836l0.007,8.802
	c-0.988,5.438,1.25,11.039,5.87,14.279c2.473,1.732,5.346,2.594,8.217,2.594c3.118,0,6.232-1.017,8.815-3.034
	c20.142-15.735,31.696-39.391,31.696-64.902C512,253.493,493.691,225.122,465.815,211.589z M385.429,289.938
	c-10.538-11.978-25.972-19.546-43.142-19.546s-32.605,7.568-43.144,19.546c-10.538-11.978-25.973-19.546-43.142-19.546
	c-17.169,0-32.603,7.568-43.142,19.546c-10.538-11.978-25.973-19.546-43.144-19.546c-17.169,0-32.603,7.568-43.142,19.546
	c-10.538-11.978-25.973-19.546-43.144-19.546c-1.273,0-2.531,0.057-3.784,0.139c-0.336,0.021-0.671,0.049-1.005,0.077
	c-1.07,0.089-2.13,0.203-3.181,0.351c-0.19,0.027-0.382,0.044-0.571,0.073c-1.21,0.18-2.405,0.407-3.589,0.661
	c-0.305,0.066-0.606,0.14-0.909,0.21c-0.961,0.223-1.913,0.471-2.855,0.743c-0.265,0.076-0.533,0.146-0.795,0.226
	c-1.141,0.346-2.266,0.727-3.376,1.143c-0.249,0.093-0.494,0.196-0.743,0.294c-0.905,0.354-1.798,0.727-2.68,1.125
	c-0.286,0.129-0.574,0.255-0.858,0.388c-1.067,0.501-2.12,1.027-3.15,1.591c-0.153,0.084-0.302,0.176-0.454,0.262
	c-0.895,0.5-1.772,1.025-2.637,1.572c-0.279,0.178-0.558,0.354-0.835,0.535c-0.933,0.611-1.853,1.243-2.747,1.907
	c-0.056,0.042-0.115,0.079-0.17,0.12c-0.938,0.7-1.846,1.439-2.737,2.195c-0.251,0.212-0.497,0.428-0.744,0.644
	c-0.737,0.646-1.459,1.31-2.162,1.992c-0.156,0.152-0.319,0.298-0.474,0.451c-0.823,0.818-1.619,1.664-2.392,2.53
	c-0.203,0.228-0.399,0.46-0.598,0.69c-0.617,0.713-1.216,1.44-1.797,2.182c-0.175,0.223-0.355,0.444-0.527,0.67
	c-0.704,0.926-1.382,1.874-2.03,2.843c-0.139,0.208-0.268,0.421-0.404,0.63c-0.528,0.812-1.035,1.638-1.522,2.477
	c-0.156,0.271-0.315,0.538-0.467,0.812c-0.576,1.031-1.13,2.077-1.642,3.146c-0.011,0.024-0.026,0.047-0.039,0.073
	c-1.916-5.559-2.921-11.471-2.921-17.543c0-24.627,17.125-46.327,40.909-52.142h204.354c7.906,0,14.317-6.411,14.317-14.317
	c0-7.906-6.411-14.317-14.317-14.317H76.127c-2.981-6.287-4.54-13.169-4.54-20.242c0-26.1,21.235-47.337,47.337-47.337H394.79
	c26.1,0,47.337,21.235,47.337,47.337c0,9.618-2.875,18.88-8.311,26.783c-2.673,3.886-3.262,8.838-1.573,13.241
	c1.689,4.404,5.438,7.693,10.022,8.795c24.201,5.817,41.102,27.283,41.102,52.201c0,6.073-1.005,11.985-2.921,17.546
	c-0.013-0.029-0.03-0.054-0.043-0.083c-0.51-1.062-1.059-2.102-1.632-3.127c-0.156-0.281-0.319-0.558-0.481-0.835
	c-0.481-0.83-0.982-1.646-1.505-2.448c-0.14-0.216-0.275-0.437-0.418-0.651c-0.644-0.965-1.32-1.908-2.02-2.831
	c-0.178-0.233-0.362-0.46-0.543-0.69c-0.576-0.734-1.168-1.455-1.778-2.159c-0.203-0.236-0.404-0.474-0.613-0.706
	c-0.77-0.863-1.562-1.704-2.382-2.518c-0.162-0.16-0.331-0.314-0.495-0.472c-0.696-0.674-1.407-1.33-2.136-1.969
	c-0.252-0.22-0.504-0.442-0.76-0.659c-0.889-0.752-1.793-1.488-2.726-2.185c-0.066-0.049-0.135-0.093-0.199-0.142
	c-0.885-0.656-1.793-1.28-2.715-1.884c-0.282-0.185-0.564-0.365-0.849-0.546c-0.856-0.54-1.727-1.061-2.612-1.556
	c-0.16-0.09-0.316-0.186-0.477-0.275c-1.027-0.561-2.075-1.085-3.138-1.585c-0.289-0.136-0.581-0.265-0.873-0.395
	c-0.876-0.394-1.764-0.766-2.663-1.117c-0.252-0.099-0.5-0.203-0.753-0.298c-1.108-0.414-2.232-0.795-3.37-1.141
	c-0.265-0.08-0.534-0.15-0.802-0.228c-0.939-0.271-1.888-0.517-2.846-0.742c-0.305-0.072-0.608-0.146-0.916-0.212
	c-1.183-0.255-2.377-0.48-3.586-0.661c-0.189-0.029-0.381-0.047-0.571-0.073c-1.052-0.147-2.113-0.262-3.183-0.351
	c-0.335-0.029-0.669-0.056-1.005-0.077c-1.253-0.082-2.511-0.139-3.784-0.139C411.401,270.392,395.967,277.961,385.429,289.938z"/>
</svg>